# xmcd
#
# Track frame offsets:
#   150
#   30384
#   64363
#   92870
#   123455
#   164162
#   190811
#   220770
#   253674
#
# Disc length: 3680 seconds
#
# Revision: 0
# Processed by: cddbd v1.5.2PL0 Copyright (c) Steve Scherf et al.
# Submitted via: GXTranscoder 2.0.1939
#
DISCID=830e5e09
DTITLE=Rudyard Kipling - Das Dschungel Buch
DYEAR=1900
DGENRE=Blues
TTITLE0=Abend in den Sionihügeln
TTITLE1=Maugli wird in das Rudel aufgenommen
TTITLE2=Mauglis Entführung
TTITLE3=Gold Lairs - Das Versteck
TTITLE4=Kaas Hungertanz
TTITLE5=Maugli verlässt den Urwald
TTITLE6=Maugli bei den Menschen
TTITLE7=Maugli kämpft mit Shir Kahn
TTITLE8=Maugli kehrt zu den Wölfen zurück
EXTD=
EXTT0=
EXTT1=
EXTT2=
EXTT3=
EXTT4=
EXTT5=
EXTT6=
EXTT7=
EXTT8=
PLAYORDER=
